<svg width="13" height="18" viewBox="0 0 13 18" fill="none" xmlns="http://www.w3.org/2000/svg">
<path d="M11.5985 5.29454C12.0216 4.85509 12.0216 4.14142 11.5985 3.70197C11.1753 3.26251 10.488 3.26251 10.0649 3.70197L6.50002 7.40743L2.93179 3.70548C2.50861 3.26603 1.82137 3.26603 1.39819 3.70548C0.975016 4.14493 0.975016 4.85861 1.39819 5.29806L4.96642 9.00001L1.40158 12.7055C0.978402 13.1449 0.978402 13.8586 1.40158 14.2981C1.82476 14.7375 2.512 14.7375 2.93517 14.2981L6.50002 10.5926L10.0682 14.2945C10.4914 14.734 11.1787 14.734 11.6018 14.2945C12.025 13.8551 12.025 13.1414 11.6018 12.702L8.03361 9.00001L11.5985 5.29454Z" fill="black"/>
</svg>
