<svg width="208" height="31" viewBox="0 0 208 31" fill="none" xmlns="http://www.w3.org/2000/svg">
<g clip-path="url(#clip0_1_17)">
<mask id="mask0_1_17" style="mask-type:luminance" maskUnits="userSpaceOnUse" x="0" y="0" width="208" height="31">
<path d="M208 0H0V31H208V0Z" fill="white"/>
</mask>
<g mask="url(#mask0_1_17)">
<path d="M28.7766 21.6265H24.5029V21.3078C24.5029 18.1804 24.5109 15.053 24.495 11.9256C24.5005 11.4363 24.4373 10.9485 24.3073 10.4766C24.1351 9.85955 23.7333 9.33097 23.1835 8.99832C22.6337 8.66567 21.9772 8.55391 21.3476 8.68577C20.676 8.73291 20.0438 9.01906 19.5668 9.4919C19.0897 9.96474 18.7995 10.5927 18.7493 11.2609C18.6835 11.6936 18.6496 12.1304 18.6479 12.568C18.6392 15.4762 18.6436 18.3844 18.6436 21.2912V21.62H14.3749V21.292C14.372 18.042 14.3686 14.792 14.3648 11.5421C14.369 10.9786 14.2289 10.4233 13.9577 9.92865C13.6864 9.46763 13.2795 9.10057 12.7919 8.87702C12.3043 8.65347 11.7596 8.5842 11.2312 8.67856C10.5135 8.75085 9.84653 9.07958 9.35374 9.60384C8.86095 10.1281 8.57578 10.8124 8.55107 11.5298C8.5135 11.878 8.49488 12.2279 8.49529 12.5781C8.49094 15.4863 8.49529 17.2958 8.49529 17.4083H4.2346V5.19142H8.47573V6.8063C9.02335 6.10984 9.7324 5.55583 10.5422 5.19172C11.3519 4.82761 12.2383 4.66424 13.1254 4.71561C14.0026 4.67296 14.8754 4.86384 15.6538 5.26858C16.4323 5.67332 17.0882 6.27728 17.5541 7.01826C17.9685 6.62103 18.343 6.2 18.779 5.85612C19.7052 5.15752 20.8271 4.76364 21.9887 4.72931C23.4746 4.58175 24.965 4.96255 26.1958 5.80421C26.8417 6.27223 27.3876 6.86354 27.8016 7.54368C28.2156 8.22382 28.4895 8.97918 28.6072 9.76572C28.713 10.3336 28.7673 10.9098 28.7694 11.4873C28.7846 14.7899 28.7766 18.0925 28.7766 21.395V21.6265Z" fill="#8D81D2"/>
<path d="M48.6864 21.6322H44.4366V19.7174C44.1244 20.0274 43.8752 20.3064 43.5942 20.5487C42.537 21.4357 41.2242 21.9658 39.8449 22.0626C37.8363 22.2231 35.8398 21.6331 34.2448 20.4075C32.6498 19.182 31.5708 17.409 31.2185 15.4344C30.9119 14.1373 30.8951 12.7891 31.1693 11.4848C31.4436 10.1806 32.0021 8.95214 32.8056 7.88625C33.8001 6.52518 35.2139 5.52449 36.8321 5.03626C38.4503 4.54803 40.1845 4.59896 41.771 5.18132C42.8099 5.57315 43.7247 6.23423 44.4207 7.09611V5.18781H48.6864V21.6322ZM35.2677 13.2161C35.2024 14.4186 35.5921 15.6017 36.36 16.5324C36.831 17.0392 37.4083 17.4368 38.0509 17.6968C38.6935 17.9568 39.3858 18.073 40.0785 18.037C40.7713 18.001 41.4476 17.8138 42.0596 17.4886C42.6715 17.1634 43.2041 16.7082 43.6195 16.1553C44.3043 15.1407 44.5755 13.9048 44.3779 12.6985C43.8752 8.78021 39.5675 7.86823 37.1394 9.57539C36.5525 9.98423 36.0751 10.5298 35.7488 11.1646C35.4225 11.7993 35.2574 12.5032 35.2677 13.2161Z" fill="#8D81D2"/>
<path d="M84.5357 15.1482C84.6591 15.679 84.8971 16.1766 85.2333 16.6066C85.8968 17.4404 86.8593 17.9857 87.9185 18.1278C89.1404 18.4052 90.4214 18.2494 91.5403 17.6873C92.0443 17.3719 92.5281 17.0257 92.989 16.6506L96.3297 18.5676C95.9408 19.1465 95.4721 19.6682 94.9375 20.1176C93.6561 21.1934 92.0766 21.8564 90.4081 22.0186C88.6201 22.2616 86.7994 22.0249 85.134 21.333C83.8189 20.8072 82.6678 19.9432 81.7984 18.8292C80.929 17.7153 80.3725 16.3914 80.1859 14.9932C79.7674 12.8173 80.1788 10.5644 81.3398 8.67423C81.975 7.62226 82.8428 6.72833 83.8774 6.06046C84.9119 5.3926 86.0859 4.9684 87.31 4.82014C89.1106 4.50129 90.9665 4.7738 92.5978 5.59658C93.7316 6.17205 94.7159 7.00137 95.4733 8.01936C96.2307 9.03735 96.7405 10.2163 96.9628 11.4635C97.1997 12.5891 97.2267 13.7483 97.0425 14.8836C97.0063 15.1165 96.9172 15.1561 96.7064 15.1554C93.4415 15.1491 90.1768 15.1477 86.9123 15.1511H84.5343L84.5357 15.1482ZM84.4828 11.8391H92.8651C92.7075 10.8896 92.2078 10.0298 91.4596 9.42026C90.7113 8.81074 89.7656 8.49326 88.7993 8.52716C87.7962 8.45226 86.8006 8.74899 86.004 9.36034C85.2074 9.97169 84.6651 10.8545 84.4828 11.8391Z" fill="#8D81D2"/>
<path d="M149.654 8.20058L146.035 10.1644C145.897 9.95533 145.779 9.74986 145.635 9.56458C145.241 9.07623 144.698 8.72886 144.088 8.57499C143.478 8.42112 142.834 8.46912 142.254 8.71172C142.102 8.77915 141.96 8.86934 141.835 8.97919C141.706 9.08004 141.603 9.20991 141.535 9.3581C141.467 9.50628 141.435 9.66852 141.442 9.83142C141.449 9.99432 141.495 10.1532 141.576 10.295C141.657 10.4367 141.77 10.5573 141.907 10.6467C142.407 10.9346 142.938 11.1653 143.491 11.3345C144.587 11.7057 145.71 12.0035 146.8 12.3921C147.646 12.684 148.397 13.1949 148.978 13.8721C149.39 14.3726 149.689 14.9551 149.855 15.5803C150.021 16.2055 150.05 16.8588 149.94 17.4963C149.84 18.451 149.45 19.3529 148.824 20.0829C148.197 20.8128 147.363 21.3364 146.431 21.5847C144.219 22.3794 141.785 22.302 139.629 21.3684C138.183 20.7516 137.024 19.613 136.387 18.1811L140.068 16.1193C140.089 16.144 140.107 16.1708 140.122 16.1993C140.362 16.8519 140.813 17.4064 141.405 17.7752C141.997 18.1439 142.695 18.3058 143.389 18.2352C143.801 18.2195 144.21 18.1583 144.608 18.0528C144.852 17.98 145.075 17.8511 145.26 17.6765C145.378 17.5713 145.472 17.441 145.534 17.2951C145.595 17.1492 145.623 16.9914 145.615 16.8333C145.607 16.6753 145.564 16.521 145.488 16.3818C145.412 16.2426 145.306 16.1221 145.178 16.0292C144.688 15.7008 144.144 15.4612 143.571 15.3212C142.476 14.9701 141.367 14.658 140.29 14.26C139.296 13.9295 138.431 13.2971 137.817 12.4519C137.274 11.5898 137.017 10.5794 137.083 9.56395C137.15 8.54851 137.535 7.57964 138.186 6.79477C139.027 5.83625 140.164 5.18236 141.418 4.93549C143.114 4.51313 144.903 4.65908 146.508 5.35075C147.842 5.93187 148.947 6.93383 149.652 8.20203" fill="#8D81D2"/>
<path d="M62.1124 5.17339H63.5481C64.534 5.17339 65.5198 5.18277 66.5049 5.1669C66.5972 5.15187 66.6917 5.17374 66.7678 5.22776C66.8439 5.28178 66.8955 5.36356 66.9113 5.45528C68.1702 9.10126 69.4343 12.7456 70.7033 16.3882C70.7309 16.4682 70.762 16.5475 70.8113 16.6802C70.933 16.337 71.0387 16.0429 71.1416 15.7473C72.344 12.3128 73.5448 8.87777 74.7438 5.4423C74.7598 5.35497 74.8094 5.2773 74.882 5.22585C74.9547 5.17441 75.0447 5.15325 75.1328 5.1669C76.5091 5.17844 77.8789 5.17267 79.2515 5.17267H79.5413C79.4862 5.31686 79.4449 5.43221 79.4022 5.54467C77.3865 10.8272 75.3728 16.1077 73.361 21.3864C73.343 21.469 73.294 21.5417 73.224 21.5897C73.1541 21.6376 73.0683 21.6572 72.9843 21.6445C71.5322 21.6334 70.0801 21.6334 68.628 21.6445C68.5564 21.6545 68.4837 21.6375 68.424 21.5968C68.3644 21.5561 68.3222 21.4947 68.3057 21.4246C66.2703 16.0772 64.2309 10.7315 62.1878 5.38751C62.166 5.33128 62.1479 5.2736 62.1153 5.17123" fill="#8D81D2"/>
<path d="M103.896 0H99.6618V21.6236H103.896V0Z" fill="#8D81D2"/>
<path d="M60.5225 4.82951V9.54512C60.261 9.54512 60.0017 9.54079 59.7423 9.54512C58.7664 9.53358 57.8123 9.83292 57.0195 10.3994C56.5339 10.7617 56.1438 11.2357 55.8827 11.7809C55.6216 12.3261 55.4971 12.9262 55.52 13.5297C55.4961 16.1142 55.5106 18.6988 55.5092 21.2826V21.6157H51.2499V5.18998H55.5041V7.85742C56.5124 5.75302 58.2654 4.91603 60.5217 4.83456" fill="#8D81D2"/>
<path d="M190.3 5.19142H194.553V7.08963C194.749 6.87984 194.897 6.71258 195.054 6.5547C196.087 5.53376 197.444 4.90259 198.893 4.76968C200.929 4.54579 202.974 5.09697 204.617 6.31241C206.261 7.52786 207.381 9.31747 207.753 11.3215C208.071 12.6207 208.096 13.9738 207.826 15.2837C207.557 16.5937 206.999 17.8281 206.194 18.8985C205.199 20.2636 203.784 21.2701 202.165 21.7663C200.545 22.2626 198.807 22.2219 197.212 21.6503C196.266 21.3039 195.425 20.723 194.767 19.9626C194.712 19.8998 194.655 19.8378 194.562 19.7347V26.7862H190.296L190.3 5.19142ZM199.009 18.0535C200.009 18.0845 200.994 17.8031 201.825 17.249C202.373 16.8702 202.826 16.3716 203.15 15.7914C203.474 15.2111 203.66 14.5647 203.694 13.9017C203.832 12.7688 203.559 11.6243 202.925 10.6734C202.542 10.1594 202.057 9.7283 201.501 9.4064C200.945 9.0845 200.329 8.87848 199.691 8.80087C199.052 8.72326 198.405 8.77567 197.787 8.95492C197.17 9.13417 196.595 9.43652 196.099 9.84358C195.389 10.4718 194.885 11.2988 194.655 12.2163C194.425 13.1338 194.478 14.0991 194.808 14.986C195.068 15.8882 195.622 16.679 196.382 17.2342C197.142 17.7894 198.066 18.0776 199.009 18.0535Z" fill="#8D81D2"/>
<path d="M187.822 21.6366H183.573V19.7225C183.261 20.0325 183.012 20.3115 182.731 20.5537C181.674 21.4407 180.361 21.9708 178.982 22.0677C176.974 22.2282 174.977 21.6381 173.382 20.4126C171.787 19.1871 170.708 17.414 170.356 15.4394C170.049 14.1424 170.032 12.7941 170.307 11.4898C170.581 10.1856 171.139 8.95717 171.943 7.8913C172.937 6.53017 174.351 5.52935 175.969 5.04099C177.587 4.55263 179.321 4.60342 180.908 5.18565C181.946 5.57748 182.861 6.23856 183.557 7.10044V5.19286H187.823L187.822 21.6366ZM174.404 13.2154C174.339 14.4202 174.729 15.6058 175.499 16.5381C175.967 17.0412 176.541 17.4363 177.179 17.6958C177.817 17.9554 178.504 18.0731 179.192 18.0408C179.881 18.0084 180.554 17.8268 181.164 17.5086C181.775 17.1904 182.308 16.7433 182.727 16.1986C183.434 15.1769 183.716 13.9225 183.514 12.6985C183.013 8.79823 178.733 7.87544 176.295 9.5653C175.703 9.97217 175.22 10.518 174.891 11.1545C174.561 11.791 174.394 12.4993 174.404 13.2154Z" fill="#8D81D2"/>
<path d="M156.817 21.6344H152.566V5.19142H156.813V6.96346C157.063 6.68735 157.264 6.43647 157.495 6.21658C158.532 5.27241 159.882 4.74163 161.287 4.7257C162.829 4.58789 164.368 5.02802 165.602 5.95993C166.836 6.9364 167.643 8.34992 167.854 9.90486C167.949 10.4661 167.997 11.0342 167.999 11.6034C168.012 14.862 168.005 18.1206 168.004 21.3799C168.004 21.457 167.998 21.5342 167.994 21.6272H163.733V21.3201C163.733 18.2922 163.741 15.2585 163.724 12.227C163.724 11.7376 163.66 11.2503 163.534 10.7772C163.418 10.2911 163.166 9.84781 162.807 9.49903C162.448 9.15025 161.997 8.91043 161.505 8.8076C160.897 8.61724 160.25 8.58596 159.627 8.71678C159.003 8.84759 158.424 9.1361 157.945 9.55449C157.317 10.1577 156.937 10.9714 156.879 11.8377C156.835 12.229 156.815 12.6226 156.819 13.0164C156.814 15.7756 156.814 18.5349 156.819 21.2941L156.817 21.6344Z" fill="#8D81D2"/>
<path d="M4.23461 17.4126H0V21.6265H4.23461V17.4126Z" fill="#8D81D2"/>
<path d="M190.291 26.7854H186.056V31H190.291V26.7854Z" fill="#8D81D2"/>
<path d="M115.117 9.9856C114.895 9.47662 114.636 8.99288 114.466 8.47958C114.07 7.35712 114.021 6.14261 114.324 4.992C114.627 3.84139 115.268 2.80719 116.166 2.02221C117.127 1.21881 118.303 0.711731 119.549 0.563044C121.115 0.318132 122.719 0.575149 124.129 1.29695C125.61 2.08495 126.755 3.38032 127.35 4.94342L123.844 6.95481C123.724 6.69816 123.62 6.44439 123.49 6.20432C123.288 5.76771 122.983 5.38624 122.6 5.09239C122.218 4.79853 121.77 4.60101 121.294 4.51662C120.92 4.43829 120.533 4.43841 120.159 4.51699C119.785 4.59556 119.431 4.75085 119.121 4.97297C118.738 5.26909 118.461 5.68113 118.333 6.1471C118.205 6.61307 118.233 7.10777 118.412 7.55679C118.673 8.25568 119.083 8.88983 119.614 9.41535C121.189 11.1427 122.769 12.8652 124.355 14.583C124.381 14.6111 124.412 14.6356 124.46 14.6796C124.936 13.5844 125.276 12.4361 125.474 11.2595C125.566 11.3049 125.636 11.3359 125.701 11.3727C126.715 11.9458 127.729 12.5226 128.743 13.0906C128.776 13.1016 128.805 13.1192 128.83 13.1422C128.856 13.1652 128.876 13.1932 128.889 13.2243C128.903 13.2554 128.91 13.2891 128.91 13.323C128.909 13.357 128.902 13.3905 128.888 13.4216C128.535 14.8176 127.976 16.1539 127.229 17.3867C127.207 17.4123 127.19 17.4421 127.18 17.4744C127.17 17.5067 127.166 17.5408 127.169 17.5745C127.173 17.6082 127.183 17.6409 127.199 17.6706C127.216 17.7003 127.238 17.7263 127.265 17.7471C127.997 18.5402 128.722 19.3332 129.449 20.1313C129.561 20.2538 129.671 20.3771 129.805 20.5242L126.522 22.3986L124.648 20.3915C124.067 20.7421 123.467 21.0617 122.851 21.3489C121.596 21.9072 120.232 22.1847 118.857 22.1616C117.482 22.1386 116.129 21.8156 114.893 21.2155C113.821 20.7014 112.936 19.8672 112.362 18.8292C111.789 17.7912 111.555 16.601 111.693 15.4243C111.768 14.335 112.108 13.28 112.682 12.3495C113.256 11.4191 114.048 10.6407 114.99 10.0808C115.031 10.0555 115.07 10.0296 115.109 10.0022C115.121 9.99353 115.129 9.97911 115.121 9.98849M117.455 12.6559C116.952 12.9515 116.537 13.3737 116.251 13.88C115.965 14.3863 115.818 14.9588 115.825 15.5396C115.797 16.1022 115.956 16.6582 116.279 17.1211C116.601 17.5839 117.069 17.9275 117.608 18.0982C118.348 18.3446 119.136 18.4203 119.91 18.3196C120.664 18.2486 121.391 18.0062 122.036 17.6109L117.448 12.653" fill="#8D81D2"/>
</g>
</g>
<defs>
<clipPath id="clip0_1_17">
<rect width="208" height="31" fill="white"/>
</clipPath>
</defs>
</svg>
