<?xml version="1.0" encoding="UTF-8"?>
<svg id="Layer_1" xmlns="http://www.w3.org/2000/svg" version="1.1" viewBox="0 0 449.7 102.2">
  <!-- Generator: Adobe Illustrator 29.0.0, SVG Export Plug-In . SVG Version: 2.1.0 Build 186)  -->
  <defs>
    <style>
      .st0 {
        fill: #8d81bd;
      }

      .st1 {
        isolation: isolate;
      }

      .st2 {
        fill: none;
        stroke: #8d81bd;
        stroke-width: 8px;
      }
    </style>
  </defs>
  <g class="st1">
    <path d="M56.8,78.2H14c2.1,7.8,8.9,11.9,17.5,11.9s10.6-1.5,14.7-5.2l6.7,7.2c-4.7,5.9-13,10.1-23.1,10.1-15.7,0-29.8-10.7-29.8-29.7s14.3-29.7,28.9-29.7,31.1,10.2,27.9,35.4ZM13.8,67.4h29.9c-.9-8.1-7.7-12.2-14.7-12.2s-13.4,4-15.2,12.2Z"/>
    <path d="M65.6,23h14.7v78.1h-14.7V23Z"/>
    <path d="M145.6,78.2h-42.8c2.1,7.8,8.9,11.9,17.5,11.9s10.6-1.5,14.7-5.2l6.7,7.2c-4.7,5.9-13,10.1-23.1,10.1-15.7,0-29.8-10.7-29.8-29.7s14.3-29.7,28.9-29.7,31.1,10.2,27.9,35.4ZM102.6,67.4h29.9c-.9-8.1-7.7-12.2-14.6-12.2s-13.5,4-15.3,12.2Z"/>
    <path d="M147.2,43.9h15.1l15.8,39.7,15.7-39.7h15.2l-24,57.2h-13.8l-24-57.2Z"/>
    <path d="M210.4,72.5c0-19.8,14.2-29.7,27.5-29.7s16.8,5.6,18.3,8.8h.3v-7.7h14.7v57.2h-14.7v-7.7h-.3c-1.4,3.2-8,8.8-18.3,8.8-13.3,0-27.5-9.9-27.5-29.7ZM256.8,72.5c0-10.8-7.7-16.5-16-16.5s-16,5.8-16,16.5,7.7,16.5,16,16.5,16-5.7,16-16.5Z"/>
    <path d="M314.6,87.8v11.3c-2.2,2-6.4,2.6-10,2.6-9.7,0-16.7-4.7-16.7-16.5v-29.5h-8.1v-11.8h8.1v-14.6h14.9v14.6h11.8v11.8h-11.8v27.2c0,3,1.7,5.8,6.5,5.8,1.2,0,3.2-.2,5.3-.9Z"/>
    <path d="M377,78.2h-42.8c2.1,7.8,8.9,11.9,17.5,11.9s10.6-1.5,14.7-5.2l6.7,7.2c-4.7,5.9-13,10.1-23.1,10.1-15.7,0-29.8-10.7-29.8-29.7s14.3-29.7,28.9-29.7,31.1,10.2,27.9,35.4ZM334,67.4h29.9c-.9-8.1-7.7-12.2-14.6-12.2s-13.5,4-15.3,12.2Z"/>
  </g>
  <g class="st1">
    <path class="st0" d="M409.5,39.4l-19.9-27.9h16.7l11.7,17.1,11.7-17.2h16.8l-19.9,27.9,21.8,29.3h-16.9l-13.5-18.5-13.3,18.6h-16.9l21.7-29.3Z"/>
  </g>
  <line id="Line_1" class="st2" x1="386.9" y1="4" x2="449.7" y2="4"/>
  <line id="Line_2" class="st2" x1="386.9" y1="76.1" x2="449.7" y2="76.1"/>
</svg>