<svg width="130" height="130" viewBox="0 0 130 130" fill="none" xmlns="http://www.w3.org/2000/svg">
<g clip-path="url(#clip0_1_67)">
<path d="M130 0H0V130H130V0Z" fill="#8D81D2"/>
<mask id="mask0_1_67" style="mask-type:luminance" maskUnits="userSpaceOnUse" x="29" y="44" width="69" height="41">
<path d="M97.216 44.782H29.526V84.765H97.216V44.782Z" fill="white"/>
</mask>
<g mask="url(#mask0_1_67)">
<path d="M97.212 84.7649H87.16V84.0119C87.16 76.6209 87.178 69.2299 87.14 61.8389C87.1528 60.6822 87.004 59.5295 86.698 58.4139C85.688 54.9989 82.819 53.8269 79.736 54.1819C76.287 54.5819 74.158 56.7339 73.625 60.2679C73.4702 61.2904 73.3907 62.3228 73.387 63.3569C73.366 70.2299 73.376 77.1029 73.376 83.9769V84.7539H63.335V83.9819C63.3283 76.3013 63.3203 68.6206 63.311 60.9399C63.3208 59.6083 62.9915 58.2961 62.354 57.1269C61.716 56.0372 60.7589 55.1696 59.6121 54.6412C58.4652 54.1127 57.1839 53.9489 55.941 54.1719C52.324 54.6649 50.057 57.0719 49.635 60.9109C49.5464 61.7336 49.5023 62.5605 49.503 63.3879C49.493 70.2609 49.497 74.5369 49.497 74.8099H39.485V45.9239H49.466V49.7389C52.266 46.1469 56.02 44.7719 60.397 44.7909C64.839 44.8109 68.429 46.4909 70.813 50.2329C71.787 49.2939 72.669 48.2989 73.694 47.4859C75.8726 45.8351 78.5117 44.9046 81.244 44.8239C84.7405 44.474 88.2479 45.3739 91.144 47.3639C92.6634 48.4699 93.9474 49.8673 94.9212 51.4747C95.895 53.082 96.5391 54.8671 96.816 56.7259C97.0647 58.0681 97.1922 59.4299 97.197 60.7949C97.233 68.5949 97.215 76.4049 97.215 84.2099L97.212 84.7649Z" fill="#1C1B28"/>
<path d="M39.485 74.8059H29.526V84.7649H39.485V74.8059Z" fill="#1C1B28"/>
</g>
</g>
<defs>
<clipPath id="clip0_1_67">
<rect width="130" height="130" fill="white"/>
</clipPath>
</defs>
</svg>
